<mxfile host="app.diagrams.net" agent="Mozilla/5.0 (Macintosh; Intel Mac OS X 10_15_7) AppleWebKit/605.1.15 (KHTML, like Gecko) Version/18.3.1 Safari/605.1.15" version="26.2.5">
  <diagram name="Page-1" id="VsGQaMHF4NAPsLCbY_zp">
    <mxGraphModel dx="1388" dy="1396" grid="1" gridSize="5" guides="1" tooltips="1" connect="1" arrows="1" fold="1" page="1" pageScale="1" pageWidth="850" pageHeight="1100" background="#FFFFFF" math="0" shadow="0">
      <root>
        <mxCell id="0" />
        <mxCell id="1" parent="0" />
        <mxCell id="xnPjPrGg45b34fDxrZJE-3" value="&lt;blockquote style=&quot;margin: 0px 0px 0px 2px; border: medium; padding: 0px;&quot;&gt;&lt;font color=&quot;#222222&quot;&gt;&lt;span style=&quot;caret-color: rgb(34, 34, 34);&quot;&gt;&lt;font face=&quot;monospace&quot;&gt;append(item)&lt;/font&gt;: add item to end&lt;/span&gt;&lt;/font&gt;&lt;br&gt;&lt;span style=&quot;caret-color: rgb(34, 34, 34); color: rgb(34, 34, 34);&quot;&gt;&lt;font face=&quot;monospace&quot;&gt;extend(items)&lt;/font&gt;: add all items to end&lt;/span&gt;&lt;br&gt;&lt;span style=&quot;caret-color: rgb(34, 34, 34); color: rgb(34, 34, 34);&quot;&gt;&lt;font face=&quot;monospace&quot;&gt;insert(pos, item)&lt;/font&gt;: insert item at position&lt;/span&gt;&lt;br&gt;&lt;/blockquote&gt;&lt;blockquote style=&quot;margin: 0px 0px 0px 2px; border: medium; padding: 0px;&quot;&gt;&lt;span style=&quot;caret-color: rgb(34, 34, 34); color: rgb(34, 34, 34);&quot;&gt;&lt;font face=&quot;monospace&quot;&gt;remove(item)&lt;/font&gt;: remove item by value&lt;/span&gt;&lt;/blockquote&gt;&lt;blockquote style=&quot;margin: 0px 0px 0px 2px; border: medium; padding: 0px;&quot;&gt;&lt;span style=&quot;caret-color: rgb(34, 34, 34); color: rgb(34, 34, 34);&quot;&gt;&lt;font face=&quot;monospace&quot;&gt;pop(index)&lt;/font&gt;: remove item by position&lt;/span&gt;&lt;/blockquote&gt;&lt;blockquote style=&quot;margin: 0px 0px 0px 2px; border: medium; padding: 0px;&quot;&gt;&lt;font color=&quot;#222222&quot;&gt;&lt;span style=&quot;caret-color: rgb(34, 34, 34);&quot;&gt;&lt;font face=&quot;monospace&quot;&gt;clear()&lt;/font&gt;: remove all items&lt;/span&gt;&lt;/font&gt;&lt;/blockquote&gt;&lt;blockquote style=&quot;margin: 0px 0px 0px 2px; border: medium; padding: 0px;&quot;&gt;&lt;font color=&quot;#222222&quot;&gt;&lt;span style=&quot;caret-color: rgb(34, 34, 34);&quot;&gt;&lt;font face=&quot;monospace&quot;&gt;sort()&lt;/font&gt;: sort list in place&lt;/span&gt;&lt;/font&gt;&lt;/blockquote&gt;&lt;blockquote style=&quot;margin: 0px 0px 0px 2px; border: medium; padding: 0px;&quot;&gt;&lt;font color=&quot;#222222&quot;&gt;&lt;span style=&quot;caret-color: rgb(34, 34, 34);&quot;&gt;&lt;font face=&quot;monospace&quot;&gt;index(item)&lt;/font&gt;: get position of item&lt;/span&gt;&lt;/font&gt;&lt;/blockquote&gt;&lt;blockquote style=&quot;margin: 0px 0px 0px 2px; border: medium; padding: 0px;&quot;&gt;&lt;span style=&quot;caret-color: rgb(34, 34, 34); color: rgb(34, 34, 34);&quot;&gt;&lt;font face=&quot;monospace&quot;&gt;copy()&lt;/font&gt;: create a copy of the list&lt;/span&gt;&lt;/blockquote&gt;" style="rounded=0;whiteSpace=wrap;html=1;align=left;" vertex="1" parent="1">
          <mxGeometry x="580" y="175" width="250" height="145" as="geometry" />
        </mxCell>
        <mxCell id="xBWhjtgX0dWzdN7Rrsa9-2" value="&lt;b&gt;&lt;font&gt;Python Cheatsheet&lt;/font&gt;&lt;/b&gt;" style="text;html=1;align=center;verticalAlign=middle;whiteSpace=wrap;rounded=0;fillColor=none;strokeColor=none;fontSize=16;" parent="1" vertex="1">
          <mxGeometry x="20" y="20" width="455" height="40" as="geometry" />
        </mxCell>
        <mxCell id="xBWhjtgX0dWzdN7Rrsa9-36" value="&lt;b&gt;Global Functions&lt;/b&gt;" style="rounded=0;whiteSpace=wrap;html=1;fillColor=#dae8fc;strokeColor=#6c8ebf;" parent="1" vertex="1">
          <mxGeometry x="240" y="895" width="340" height="24" as="geometry" />
        </mxCell>
        <mxCell id="xBWhjtgX0dWzdN7Rrsa9-37" value="&lt;blockquote style=&quot;margin: 10px 0px 0px 5px; border: medium; padding: 0px;&quot;&gt;&lt;div style=&quot;padding-bottom: 0px; margin-top: 0px; padding-left: 0px; padding-right: 0px; line-height: 130%;&quot;&gt;&lt;p&gt;&lt;/p&gt;&lt;ul style=&quot;padding-left: 10px; margin-bottom: 10px; margin-top: 10px;&quot;&gt;&lt;li&gt;&lt;font&gt;&lt;font style=&quot;line-height: 130%;&quot; face=&quot;monospace&quot;&gt;type(expr)&lt;/font&gt;&lt;span style=&quot;line-height: 130%;&quot;&gt;: Get the &lt;b&gt;type&lt;/b&gt; of the expression/variable/literal&lt;/span&gt;&lt;br&gt;&lt;/font&gt;&lt;/li&gt;&lt;li&gt;&lt;font&gt;&lt;span style=&quot;line-height: 130%;&quot;&gt;&lt;font face=&quot;monospace&quot;&gt;id(expr)&lt;/font&gt;: Get the &lt;b&gt;identity&lt;/b&gt; of the expression/variable/literal&lt;/span&gt;&lt;br&gt;&lt;/font&gt;&lt;/li&gt;&lt;li&gt;&lt;font&gt;&lt;span style=&quot;line-height: 130%;&quot;&gt;&lt;font face=&quot;monospace&quot;&gt;dir(expr)&lt;/font&gt;: Get the &lt;b&gt;attributes&lt;/b&gt; of the type of the expression/variable/literal&lt;/span&gt;&lt;br&gt;&lt;/font&gt;&lt;/li&gt;&lt;li&gt;&lt;font&gt;&lt;span style=&quot;line-height: 130%;&quot;&gt;&lt;font face=&quot;monospace&quot;&gt;print(str)&lt;/font&gt;: Print the input&lt;/span&gt;&lt;br&gt;&lt;/font&gt;&lt;/li&gt;&lt;li&gt;&lt;span style=&quot;line-height: 130%;&quot;&gt;&lt;font&gt;&lt;font face=&quot;monospace&quot;&gt;input(str)&lt;/font&gt;: Print the input and prompt the user to type in input (returns a &lt;font face=&quot;monospace&quot;&gt;str&lt;/font&gt;)&lt;/font&gt;&lt;/span&gt;&lt;/li&gt;&lt;/ul&gt;&lt;/div&gt;&lt;/blockquote&gt;" style="rounded=0;whiteSpace=wrap;html=1;align=left;" parent="1" vertex="1">
          <mxGeometry x="240" y="919" width="340" height="106" as="geometry" />
        </mxCell>
        <mxCell id="xBWhjtgX0dWzdN7Rrsa9-41" value="&lt;b&gt;Control Flow&lt;/b&gt;" style="rounded=0;whiteSpace=wrap;html=1;fillColor=#dae8fc;strokeColor=#6c8ebf;" parent="1" vertex="1">
          <mxGeometry x="240" y="60" width="340" height="20" as="geometry" />
        </mxCell>
        <mxCell id="xBWhjtgX0dWzdN7Rrsa9-48" value="&lt;div style=&quot;margin-top: 0px; margin-bottom: 0px; line-height: 100%;&quot;&gt;&lt;pre style=&quot;margin-top: 0px; margin-bottom: 0px;&quot;&gt;&lt;font style=&quot;font-size: 11px;&quot; face=&quot;monospace&quot;&gt;&lt;font&gt;if EXPRESSION:&lt;br&gt;&lt;/font&gt;&lt;font&gt;    indented block executed if EXPRESSION is &lt;/font&gt;&lt;/font&gt;&lt;span style=&quot;font-size: 11px; white-space: normal;&quot;&gt;True&lt;/span&gt;&lt;/pre&gt;&lt;pre style=&quot;margin-top: 0px; margin-bottom: 0px;&quot;&gt;&lt;span style=&quot;white-space: normal;&quot;&gt;&lt;font style=&quot;font-size: 11px;&quot;&gt;&lt;br&gt;&lt;/font&gt;&lt;/span&gt;&lt;/pre&gt;&lt;pre style=&quot;margin-bottom: 0px; margin-top: 0px;&quot;&gt;&lt;font face=&quot;monospace&quot;&gt;&lt;font style=&quot;font-size: 11px;&quot;&gt;    Note that the indentation is required,&lt;/font&gt;&lt;/font&gt;&lt;/pre&gt;&lt;pre style=&quot;margin-bottom: 0px; margin-top: 0px;&quot;&gt;&lt;font style=&quot;font-size: 11px;&quot; face=&quot;monospace&quot;&gt;&lt;font&gt;    and that &lt;/font&gt;&lt;font&gt;EXPRESSION can &lt;/font&gt;&lt;font style=&quot;white-space: normal;&quot;&gt;represent &lt;/font&gt;&lt;span style=&quot;white-space: normal;&quot;&gt;more&amp;nbsp;&lt;/span&gt;&lt;/font&gt;&lt;/pre&gt;&lt;pre style=&quot;margin-bottom: 0px; margin-top: 0px;&quot;&gt;&lt;font style=&quot;font-size: 11px;&quot;&gt;&lt;font face=&quot;monospace&quot;&gt;&lt;span style=&quot;white-space: normal;&quot;&gt;&amp;nbsp; &amp;nbsp; than&amp;nbsp;&lt;/span&gt;&lt;/font&gt;&lt;span style=&quot;white-space: normal;&quot;&gt;one individual expression&lt;/span&gt;&lt;/font&gt;&lt;/pre&gt;&lt;pre style=&quot;margin-bottom: 0px; margin-top: 0px;&quot;&gt;&lt;font face=&quot;monospace&quot;&gt;&lt;font style=&quot;font-size: 11px;&quot;&gt;Program continues here&lt;/font&gt;&lt;/font&gt;&lt;/pre&gt;&lt;/div&gt;" style="rounded=0;whiteSpace=wrap;html=1;align=left;fillColor=#E6E6E6;fontFamily=monospace;" parent="1" vertex="1">
          <mxGeometry x="240" y="80" width="340" height="100" as="geometry" />
        </mxCell>
        <mxCell id="xBWhjtgX0dWzdN7Rrsa9-49" value="&lt;pre style=&quot;margin-top: 0px; margin-bottom: 0px;&quot;&gt;&lt;font style=&quot;font-size: 11px;&quot; face=&quot;monospace&quot;&gt;if EXPRESSION:&lt;br&gt;&lt;/font&gt;&lt;pre style=&quot;margin-top: 0px; margin-bottom: 0px;&quot;&gt;&lt;font style=&quot;font-size: 11px;&quot; face=&quot;monospace&quot;&gt;&lt;font&gt;    indented block executed if EXPRESSION &lt;/font&gt;&lt;span style=&quot;white-space: normal;&quot;&gt;is True&lt;/span&gt;&lt;/font&gt;&lt;/pre&gt;&lt;pre style=&quot;margin-top: 0px; margin-bottom: 0px;&quot;&gt;&lt;font style=&quot;font-size: 11px;&quot; face=&quot;monospace&quot;&gt;&lt;font&gt;else:&lt;br&gt;    indented block executed if EXPRESSION &lt;/font&gt;&lt;span style=&quot;white-space: normal;&quot;&gt;is False&lt;/span&gt;&lt;/font&gt;&lt;/pre&gt;&lt;pre style=&quot;margin-top: 0px; margin-bottom: 0px;&quot;&gt;&lt;font style=&quot;font-size: 11px;&quot; face=&quot;monospace&quot;&gt;Program continues here&lt;/font&gt;&lt;/pre&gt;&lt;/pre&gt;" style="rounded=0;whiteSpace=wrap;html=1;align=left;fillColor=#E6E6E6;" parent="1" vertex="1">
          <mxGeometry x="240" y="180" width="340" height="75" as="geometry" />
        </mxCell>
        <mxCell id="xBWhjtgX0dWzdN7Rrsa9-53" value="&lt;div style=&quot;line-height: 18px; white-space: pre;&quot;&gt;&lt;pre style=&quot;margin-bottom: 0px; margin-top: 0px; line-height: 100%;&quot;&gt;&lt;font face=&quot;monospace&quot; style=&quot;line-height: 100%; font-size: 11px;&quot;&gt;while (EXPRESSION):&lt;br&gt;&lt;/font&gt;&lt;pre style=&quot;margin-top: 0px; margin-bottom: 0px;&quot;&gt;&lt;font face=&quot;monospace&quot;&gt;&lt;font&gt;&lt;font style=&quot;line-height: 100%; font-size: 11px;&quot;&gt;    if EXPRESSION is true, execute &lt;/font&gt;&lt;/font&gt;&lt;span style=&quot;font-size: 11px;&quot;&gt;indented block&lt;/span&gt;&lt;/font&gt;&lt;/pre&gt;&lt;pre style=&quot;margin-top: 0px; margin-bottom: 0px;&quot;&gt;&lt;font face=&quot;monospace&quot; style=&quot;font-size: 11px;&quot;&gt;&lt;font style=&quot;line-height: 100%;&quot;&gt;    Repeat until the EXPRESSION &lt;/font&gt;&lt;font style=&quot;line-height: 100%;&quot;&gt;evaluates to false&lt;/font&gt;&lt;font style=&quot;line-height: 100%;&quot;&gt;&lt;br&gt;&lt;/font&gt;&lt;font style=&quot;line-height: 100%;&quot;&gt;Program continues here&lt;/font&gt;&lt;/font&gt;&lt;/pre&gt;&lt;/pre&gt;&lt;/div&gt;" style="rounded=0;whiteSpace=wrap;html=1;fillColor=#E6E6E6;align=left;" parent="1" vertex="1">
          <mxGeometry x="240" y="454.22" width="340" height="55.78" as="geometry" />
        </mxCell>
        <mxCell id="xBWhjtgX0dWzdN7Rrsa9-54" value="&lt;div style=&quot;line-height: 18px; white-space: pre;&quot;&gt;&lt;pre style=&quot;margin-bottom: 0px; margin-top: 0px; line-height: 100%;&quot;&gt;&lt;font face=&quot;monospace&quot; style=&quot;line-height: 100%; font-size: 11px;&quot;&gt;for item in ITERABLE:&lt;br&gt;&lt;/font&gt;&lt;pre style=&quot;margin-top: 0px; margin-bottom: 0px;&quot;&gt;&lt;font face=&quot;monospace&quot; style=&quot;line-height: 100%; font-size: 11px;&quot;&gt;    item will be the next element in ITERABLE&lt;/font&gt;&lt;/pre&gt;&lt;pre style=&quot;margin-top: 0px; margin-bottom: 0px;&quot;&gt;&lt;font face=&quot;monospace&quot; style=&quot;font-size: 11px;&quot;&gt;&lt;font style=&quot;line-height: 100%;&quot;&gt;    on each s&lt;/font&gt;ubsequent loop&lt;/font&gt;&lt;/pre&gt;&lt;pre style=&quot;margin-top: 0px; margin-bottom: 0px;&quot;&gt;&lt;font face=&quot;monospace&quot; style=&quot;line-height: 100%; font-size: 11px;&quot;&gt;Program continues here&lt;/font&gt;&lt;/pre&gt;&lt;/pre&gt;&lt;/div&gt;" style="rounded=0;whiteSpace=wrap;html=1;fillColor=#E6E6E6;align=left;" parent="1" vertex="1">
          <mxGeometry x="240" y="510" width="340" height="55" as="geometry" />
        </mxCell>
        <mxCell id="xBWhjtgX0dWzdN7Rrsa9-56" value="&lt;div style=&quot;text-align: left; padding-top: 10px; margin-bottom: 5px;&quot;&gt;&lt;font&gt;&amp;nbsp; &amp;nbsp; &amp;nbsp; &amp;nbsp; &amp;nbsp;Immediately exit the current loop&lt;/font&gt;&lt;/div&gt;&lt;div style=&quot;text-align: left;&quot;&gt;&lt;font&gt;&amp;nbsp; &amp;nbsp; &amp;nbsp; &amp;nbsp; &amp;nbsp;Immediately jump to the next iteration&lt;br&gt;&lt;/font&gt;&lt;/div&gt;&lt;div style=&quot;text-align: left;&quot;&gt;&lt;span style=&quot;font-size: 11px;&quot;&gt;&lt;br&gt;&lt;/span&gt;&lt;/div&gt;" style="rounded=0;whiteSpace=wrap;html=1;" parent="1" vertex="1">
          <mxGeometry x="240" y="565" width="340" height="40" as="geometry" />
        </mxCell>
        <mxCell id="xBWhjtgX0dWzdN7Rrsa9-55" value="&lt;div style=&quot;text-align: start; font-family: OperatorMonoLig-Book, Menlo, Monaco, &amp;quot;Courier New&amp;quot;, monospace; line-height: 18px; white-space: pre;&quot;&gt;&lt;pre style=&quot;margin-bottom: 0px; margin-top: 0px; line-height: 100%;&quot;&gt;&lt;font&gt;break&lt;/font&gt;&lt;/pre&gt;&lt;/div&gt;" style="rounded=1;whiteSpace=wrap;html=1;fillColor=#E6E6E6;" parent="1" vertex="1">
          <mxGeometry x="240" y="565" width="80" height="20" as="geometry" />
        </mxCell>
        <mxCell id="xBWhjtgX0dWzdN7Rrsa9-57" value="&lt;div style=&quot;text-align: start; font-family: OperatorMonoLig-Book, Menlo, Monaco, &amp;quot;Courier New&amp;quot;, monospace; line-height: 18px; white-space: pre;&quot;&gt;&lt;pre style=&quot;margin-bottom: 0px; margin-top: 0px; line-height: 100%;&quot;&gt;&lt;font&gt;continue&lt;/font&gt;&lt;/pre&gt;&lt;/div&gt;" style="rounded=1;whiteSpace=wrap;html=1;fillColor=#E6E6E6;" parent="1" vertex="1">
          <mxGeometry x="240" y="585" width="80" height="20" as="geometry" />
        </mxCell>
        <mxCell id="xBWhjtgX0dWzdN7Rrsa9-58" value="&lt;b&gt;Operators / Comparators&lt;/b&gt;" style="rounded=0;whiteSpace=wrap;html=1;fillColor=#dae8fc;strokeColor=#6c8ebf;" parent="1" vertex="1">
          <mxGeometry x="20" y="825" width="220" height="20" as="geometry" />
        </mxCell>
        <mxCell id="xBWhjtgX0dWzdN7Rrsa9-59" value="&lt;blockquote style=&quot;margin: 10px 0px 0px 5px; border: medium; padding: 0px;&quot;&gt;&lt;div style=&quot;padding-bottom: 0px; margin-top: 0px; padding-left: 0px; padding-right: 0px; line-height: 130%;&quot;&gt;&lt;p&gt;&lt;/p&gt;&lt;p&gt;&lt;/p&gt;&lt;p&gt;&lt;/p&gt;&lt;p&gt;&lt;/p&gt;&lt;ul style=&quot;padding-left: 10px;&quot;&gt;&lt;li&gt;&lt;font face=&quot;Helvetica&quot;&gt;&amp;lt;,&amp;gt;,&amp;lt;=,&amp;gt;=,==,!= &amp;nbsp; &amp;nbsp; &amp;nbsp; &amp;nbsp; &amp;nbsp; &amp;nbsp; &amp;nbsp; &amp;nbsp; &amp;nbsp; &amp;nbsp; &amp;nbsp; &amp;nbsp; &amp;nbsp; &amp;nbsp; &amp;nbsp; &amp;nbsp; &amp;nbsp;lt, gt, lte, gte, equal, not equal&lt;/font&gt;&lt;/li&gt;&lt;li&gt;&lt;font face=&quot;Helvetica&quot;&gt;+,-,*,/ &amp;nbsp; &amp;nbsp; &amp;nbsp; &amp;nbsp; &amp;nbsp; &amp;nbsp; &amp;nbsp; &amp;nbsp; &amp;nbsp; &amp;nbsp; &amp;nbsp; &amp;nbsp; &amp;nbsp; &amp;nbsp; &amp;nbsp; &amp;nbsp; &amp;nbsp; &amp;nbsp; &amp;nbsp; &amp;nbsp; &amp;nbsp; &amp;nbsp; &amp;nbsp;add, subtract, multiply, divide&lt;/font&gt;&lt;/li&gt;&lt;li&gt;&lt;font face=&quot;Helvetica&quot;&gt;% modulus (remainder)&lt;/font&gt;&lt;/li&gt;&lt;li&gt;&lt;font face=&quot;Helvetica&quot;&gt;** exponentiation&lt;/font&gt;&lt;/li&gt;&lt;li&gt;&lt;font face=&quot;Helvetica&quot;&gt;// integer division (integer quotient)&lt;/font&gt;&lt;/li&gt;&lt;/ul&gt;&lt;p&gt;&lt;/p&gt;&lt;p&gt;&lt;/p&gt;&lt;p&gt;&lt;/p&gt;&lt;/div&gt;&lt;/blockquote&gt;" style="rounded=0;whiteSpace=wrap;html=1;align=left;" parent="1" vertex="1">
          <mxGeometry x="20" y="845" width="220" height="125" as="geometry" />
        </mxCell>
        <mxCell id="xBWhjtgX0dWzdN7Rrsa9-5" value="Key Structures" style="rounded=0;whiteSpace=wrap;html=1;fillColor=#dae8fc;strokeColor=#6c8ebf;fontStyle=1" parent="1" vertex="1">
          <mxGeometry x="20" y="60" width="220" height="20" as="geometry" />
        </mxCell>
        <mxCell id="xBWhjtgX0dWzdN7Rrsa9-6" value="&lt;blockquote style=&quot;margin: 0px 0px 0px 10px; border: medium; padding: 0px;&quot;&gt;&lt;li style=&quot;caret-color: rgb(34, 34, 34); color: rgb(34, 34, 34);&quot;&gt;&lt;font face=&quot;Helvetica&quot;&gt;Sequence&lt;/font&gt;&lt;/li&gt;&lt;li style=&quot;caret-color: rgb(34, 34, 34); color: rgb(34, 34, 34);&quot;&gt;&lt;font face=&quot;Helvetica&quot;&gt;Variables and Assignment&lt;/font&gt;&lt;/li&gt;&lt;li style=&quot;caret-color: rgb(34, 34, 34); color: rgb(34, 34, 34);&quot;&gt;&lt;font face=&quot;Helvetica&quot;&gt;Boolean and arithmetic expressions (operators and comparators)&lt;/font&gt;&lt;/li&gt;&lt;li style=&quot;caret-color: rgb(34, 34, 34); color: rgb(34, 34, 34);&quot;&gt;&lt;font face=&quot;Helvetica&quot;&gt;Control Flow&lt;/font&gt;&lt;/li&gt;&lt;li style=&quot;caret-color: rgb(34, 34, 34); color: rgb(34, 34, 34);&quot;&gt;&lt;font face=&quot;Helvetica&quot;&gt;Looping&lt;/font&gt;&lt;/li&gt;&lt;li style=&quot;caret-color: rgb(34, 34, 34); color: rgb(34, 34, 34);&quot;&gt;&lt;font face=&quot;Helvetica&quot;&gt;Functions/Routines&lt;/font&gt;&lt;/li&gt;&lt;/blockquote&gt;" style="rounded=0;whiteSpace=wrap;html=1;align=left;" parent="1" vertex="1">
          <mxGeometry x="20" y="80" width="220" height="100" as="geometry" />
        </mxCell>
        <mxCell id="xBWhjtgX0dWzdN7Rrsa9-7" value="Variables" style="rounded=0;whiteSpace=wrap;html=1;fillColor=#dae8fc;strokeColor=#6c8ebf;fontStyle=1" parent="1" vertex="1">
          <mxGeometry x="20" y="180" width="220" height="20" as="geometry" />
        </mxCell>
        <mxCell id="xBWhjtgX0dWzdN7Rrsa9-8" value="&lt;blockquote style=&quot;margin: 10px 0px 0px 5px; border: medium; padding: 0px;&quot;&gt;&lt;div style=&quot;padding-bottom: 0px; margin-top: 0px; padding-left: 0px; padding-right: 0px; line-height: 90%;&quot;&gt;&lt;pre style=&quot;margin-top: 0px; margin-bottom: 0px;&quot;&gt;&lt;font&gt;&lt;span style=&quot;font-family: Helvetica; white-space: normal;&quot;&gt;&lt;font face=&quot;monospace&quot;&gt;lvalue&lt;/font&gt;&lt;/span&gt;&lt;font style=&quot;white-space: normal;&quot; face=&quot;Helvetica&quot;&gt; is a name&lt;/font&gt;&lt;br&gt;&lt;/font&gt;&lt;/pre&gt;&lt;/div&gt;&lt;div style=&quot;padding-bottom: 0px; margin-top: 0px; padding-left: 0px; padding-right: 0px; line-height: 90%;&quot;&gt;&lt;pre style=&quot;margin-top: 0px; margin-bottom: 0px;&quot;&gt;&lt;font face=&quot;monospace&quot; style=&quot;white-space: normal;&quot;&gt;&lt;br&gt;&lt;/font&gt;&lt;/pre&gt;&lt;/div&gt;&lt;div style=&quot;padding-bottom: 0px; margin-top: 0px; padding-left: 0px; padding-right: 0px; line-height: 90%;&quot;&gt;&lt;pre style=&quot;margin-top: 0px; margin-bottom: 0px;&quot;&gt;&lt;font&gt;&lt;font face=&quot;monospace&quot; style=&quot;white-space: normal;&quot;&gt;rvalue&lt;/font&gt;&lt;font style=&quot;white-space: normal;&quot; face=&quot;Helvetica&quot;&gt; is an expression&lt;/font&gt;&lt;/font&gt;&lt;/pre&gt;&lt;/div&gt;&lt;div style=&quot;padding-bottom: 0px; margin-top: 0px; padding-left: 0px; padding-right: 0px; line-height: 90%;&quot;&gt;&lt;pre style=&quot;margin-top: 0px; margin-bottom: 0px;&quot;&gt;&lt;font face=&quot;Helvetica&quot;&gt;&lt;span style=&quot;white-space: normal;&quot;&gt;&lt;br&gt;&lt;/span&gt;&lt;/font&gt;&lt;/pre&gt;&lt;/div&gt;&lt;div style=&quot;padding-bottom: 0px; margin-top: 0px; padding-left: 0px; padding-right: 0px; line-height: 90%;&quot;&gt;&lt;pre style=&quot;margin-top: 0px; margin-bottom: 0px;&quot;&gt;&lt;font face=&quot;Helvetica&quot;&gt;&lt;span style=&quot;white-space: normal;&quot;&gt;Name should start with letter or underscore, can contain letters, underscores, or digits&lt;/span&gt;&lt;/font&gt;&lt;/pre&gt;&lt;/div&gt;&lt;/blockquote&gt;" style="rounded=0;whiteSpace=wrap;html=1;align=left;" parent="1" vertex="1">
          <mxGeometry x="20" y="206" width="220" height="90" as="geometry" />
        </mxCell>
        <mxCell id="xBWhjtgX0dWzdN7Rrsa9-9" value="&lt;pre style=&quot;text-align: left; margin-top: 0px; margin-bottom: 0px;&quot;&gt;&lt;span&gt;lvalue = rvalue&lt;/span&gt;&lt;/pre&gt;" style="rounded=1;whiteSpace=wrap;html=1;fillColor=#E6E6E6;" parent="1" vertex="1">
          <mxGeometry x="20" y="200" width="220" height="15" as="geometry" />
        </mxCell>
        <mxCell id="xBWhjtgX0dWzdN7Rrsa9-11" value="&lt;blockquote style=&quot;margin: 0px 0px 0px 10px; border: medium; padding: 0px;&quot;&gt;&lt;font&gt;&lt;font face=&quot;monospace&quot;&gt;&lt;span style=&quot;caret-color: rgb(36, 41, 46); color: rgb(36, 41, 46); white-space: pre;&quot;&gt;a = &lt;/span&gt;&lt;span style=&quot;color: rgb(0, 92, 197); white-space: pre;&quot; class=&quot;hljs-number&quot;&gt;42&lt;br&gt;&lt;/span&gt;&lt;/font&gt;&lt;font face=&quot;monospace&quot;&gt;&lt;span style=&quot;caret-color: rgb(36, 41, 46); color: rgb(36, 41, 46); white-space: pre;&quot;&gt;b = &lt;/span&gt;&lt;span style=&quot;color: rgb(3, 47, 98); white-space: pre;&quot; class=&quot;hljs-string&quot;&gt;&quot;fourtytwo&quot;&lt;br&gt;&lt;/span&gt;&lt;/font&gt;&lt;font face=&quot;monospace&quot;&gt;&lt;span style=&quot;caret-color: rgb(36, 41, 46); color: rgb(36, 41, 46); white-space: pre;&quot;&gt;c = &lt;/span&gt;&lt;span style=&quot;color: rgb(0, 92, 197); white-space: pre;&quot; class=&quot;hljs-number&quot;&gt;123.1&lt;/span&gt;&lt;/font&gt;&lt;/font&gt;&lt;/blockquote&gt;" style="rounded=0;whiteSpace=wrap;html=1;align=left;fillColor=#E6E6E6;" parent="1" vertex="1">
          <mxGeometry x="20" y="316" width="220" height="45" as="geometry" />
        </mxCell>
        <mxCell id="xBWhjtgX0dWzdN7Rrsa9-31" value="&lt;b&gt;Objects&lt;/b&gt;" style="rounded=0;whiteSpace=wrap;html=1;fillColor=#dae8fc;strokeColor=#6c8ebf;" parent="1" vertex="1">
          <mxGeometry x="20" y="436" width="220" height="18.22" as="geometry" />
        </mxCell>
        <mxCell id="xBWhjtgX0dWzdN7Rrsa9-32" value="&lt;blockquote style=&quot;margin: 10px 0px 0px 5px; border: medium; padding: 0px;&quot;&gt;&lt;div style=&quot;padding-bottom: 0px; margin-top: 0px; padding-left: 0px; padding-right: 0px; line-height: 90%;&quot;&gt;&lt;p style=&quot;margin-bottom: 5px; margin-top: 5px;&quot;&gt;&lt;font&gt;Any piece of data is called an &lt;b&gt;object&lt;/b&gt;, stored in &lt;b&gt;memory&lt;/b&gt;, and a &lt;b&gt;variable&lt;/b&gt; is an alias to that object.&lt;/font&gt;&lt;/p&gt;&lt;p style=&quot;margin-bottom: 5px; margin-top: 5px;&quot;&gt;&lt;font&gt;All objects have:&lt;/font&gt;&lt;/p&gt;&lt;p&gt;&lt;/p&gt;&lt;ul style=&quot;padding-left: 10px; margin-top: 5px; margin-bottom: 5px;&quot;&gt;&lt;li&gt;&lt;font&gt;Identity&lt;br&gt;&lt;/font&gt;&lt;/li&gt;&lt;li&gt;&lt;font&gt;Type&lt;/font&gt;&lt;/li&gt;&lt;li&gt;&lt;font&gt;Attributes&lt;/font&gt;&lt;/li&gt;&lt;li&gt;&lt;font&gt;0+ aliases (variables)&lt;/font&gt;&lt;/li&gt;&lt;/ul&gt;&lt;p&gt;&lt;/p&gt;&lt;/div&gt;&lt;/blockquote&gt;" style="rounded=0;whiteSpace=wrap;html=1;align=left;" parent="1" vertex="1">
          <mxGeometry x="20" y="454.22" width="220" height="109.33" as="geometry" />
        </mxCell>
        <mxCell id="xBWhjtgX0dWzdN7Rrsa9-39" value="&lt;blockquote style=&quot;margin: 10px 0px 0px 5px; border: medium; padding: 0px;&quot;&gt;&lt;div style=&quot;padding-bottom: 0px; margin-top: 0px; padding-left: 0px; padding-right: 0px; line-height: 100%; margin-bottom: 0px;&quot;&gt;&lt;p style=&quot;margin-top: 0px; margin-bottom: 0px;&quot;&gt;&lt;font&gt;&lt;font&gt;&lt;b&gt;&amp;nbsp; &amp;nbsp; &amp;nbsp; &amp;nbsp; &amp;nbsp; &amp;nbsp; &amp;nbsp; &amp;nbsp; Literal&lt;/b&gt;: a literal &lt;/font&gt;Python&lt;/font&gt;&lt;/p&gt;&lt;p style=&quot;margin-top: 0px; margin-bottom: 0px;&quot;&gt;&lt;font&gt;&amp;nbsp; &amp;nbsp; &amp;nbsp; &amp;nbsp; &amp;nbsp; &amp;nbsp; &amp;nbsp; &amp;nbsp; value h&lt;/font&gt;ard coded in the &amp;nbsp; &amp;nbsp; &amp;nbsp;&lt;/p&gt;&lt;p style=&quot;margin-top: 0px; margin-bottom: 0px;&quot;&gt;&amp;nbsp; &amp;nbsp; &amp;nbsp; &amp;nbsp; &amp;nbsp; &amp;nbsp; &amp;nbsp; &amp;nbsp; code&lt;/p&gt;&lt;p style=&quot;margin-top: 0px; margin-bottom: 0px;&quot;&gt;&lt;br&gt;&lt;/p&gt;&lt;p style=&quot;margin-top: 0px; margin-bottom: 0px;&quot;&gt;&lt;font&gt;&lt;b&gt;Operator&lt;/b&gt;: An arithmetic or logical operation&lt;/font&gt;&lt;/p&gt;&lt;p style=&quot;margin-top: 0px; margin-bottom: 0px;&quot;&gt;&lt;font&gt;&lt;b&gt;Comparator&lt;/b&gt;: A comparison operator, usually resulting in a boolean&lt;/font&gt;&lt;/p&gt;&lt;/div&gt;&lt;/blockquote&gt;" style="rounded=0;whiteSpace=wrap;html=1;align=left;" parent="1" vertex="1">
          <mxGeometry x="20" y="578" width="220" height="112" as="geometry" />
        </mxCell>
        <mxCell id="xBWhjtgX0dWzdN7Rrsa9-40" value="&lt;pre style=&quot;text-align: left; margin-top: 0px; margin-bottom: 0px;&quot;&gt;&lt;font face=&quot;Helvetica&quot; style=&quot;white-space: normal; font-size: 12px;&quot;&gt;42&lt;/font&gt;&lt;/pre&gt;&lt;pre style=&quot;text-align: left; margin-top: 0px; margin-bottom: 0px;&quot;&gt;&lt;font style=&quot;font-size: 12px;&quot;&gt;&lt;span style=&quot;font-family: Helvetica; white-space: normal;&quot;&gt;x + 2&lt;/span&gt;&lt;br&gt;&lt;/font&gt;&lt;/pre&gt;&lt;pre style=&quot;text-align: left; margin-top: 0px; margin-bottom: 0px;&quot;&gt;&lt;font style=&quot;font-size: 12px;&quot;&gt;x &amp;gt; 4&lt;/font&gt;&lt;/pre&gt;" style="rounded=1;whiteSpace=wrap;html=1;fillColor=#E6E6E6;fontSize=8;" parent="1" vertex="1">
          <mxGeometry x="25" y="588" width="50" height="41.44" as="geometry" />
        </mxCell>
        <mxCell id="xBWhjtgX0dWzdN7Rrsa9-33" value="&lt;b&gt;Types&lt;/b&gt;" style="rounded=0;whiteSpace=wrap;html=1;fillColor=#dae8fc;strokeColor=#6c8ebf;" parent="1" vertex="1">
          <mxGeometry x="20" y="690" width="220" height="20" as="geometry" />
        </mxCell>
        <mxCell id="xBWhjtgX0dWzdN7Rrsa9-34" value="&lt;blockquote style=&quot;margin: 10px 0px 0px 5px; border: medium; padding: 0px;&quot;&gt;&lt;div style=&quot;padding-bottom: 0px; margin-top: 0px; padding-left: 0px; padding-right: 0px; line-height: 90%; margin-bottom: 0px;&quot;&gt;&lt;p style=&quot;margin-top: 0px; margin-bottom: 0px;&quot;&gt;Some basic types:&lt;br&gt;&lt;/p&gt;&lt;p style=&quot;margin-top: 0px; margin-bottom: 0px;&quot;&gt;&lt;/p&gt;&lt;ul style=&quot;padding-left: 10px; margin-top: 5px; margin-bottom: 5px;&quot;&gt;&lt;li&gt;&lt;font&gt;&lt;font face=&quot;monospace&quot;&gt;&lt;b&gt;int&lt;/b&gt;&lt;/font&gt;: integers&lt;br&gt;&lt;/font&gt;&lt;/li&gt;&lt;li&gt;&lt;font&gt;&lt;font face=&quot;monospace&quot;&gt;&lt;b&gt;float&lt;/b&gt;&lt;/font&gt;: floating point (decimal) numbers&lt;br&gt;&lt;/font&gt;&lt;/li&gt;&lt;li&gt;&lt;font&gt;&lt;font face=&quot;monospace&quot;&gt;&lt;b&gt;str&lt;/b&gt;&lt;/font&gt;: strings, a sequence of characters&lt;br&gt;&lt;/font&gt;&lt;/li&gt;&lt;li&gt;&lt;font&gt;&lt;font face=&quot;monospace&quot;&gt;&lt;b&gt;bool&lt;/b&gt;&lt;/font&gt;: boolean value &lt;font face=&quot;monospace&quot;&gt;&lt;b&gt;True&lt;/b&gt;&lt;/font&gt; or &lt;font face=&quot;monospace&quot;&gt;&lt;b&gt;False&lt;/b&gt;&lt;/font&gt;&lt;/font&gt;&lt;br&gt;&lt;/li&gt;&lt;/ul&gt;&lt;p&gt;&lt;/p&gt;&lt;/div&gt;&lt;/blockquote&gt;" style="rounded=0;whiteSpace=wrap;html=1;align=left;" parent="1" vertex="1">
          <mxGeometry x="20" y="730" width="220" height="95" as="geometry" />
        </mxCell>
        <mxCell id="xBWhjtgX0dWzdN7Rrsa9-35" value="&lt;pre style=&quot;text-align: left; margin-top: 0px; margin-bottom: 0px;&quot;&gt;&lt;span&gt;type(&amp;lt;expression&amp;gt;)&lt;/span&gt;&lt;/pre&gt;" style="rounded=1;whiteSpace=wrap;html=1;fillColor=#E6E6E6;" parent="1" vertex="1">
          <mxGeometry x="20" y="710" width="220" height="20" as="geometry" />
        </mxCell>
        <mxCell id="6P4yh0mAgrU536swKlk3-18" value="" style="group" parent="1" vertex="1" connectable="0">
          <mxGeometry x="20" y="361" width="220" height="75" as="geometry" />
        </mxCell>
        <mxCell id="xBWhjtgX0dWzdN7Rrsa9-14" value="" style="rounded=0;whiteSpace=wrap;html=1;" parent="6P4yh0mAgrU536swKlk3-18" vertex="1">
          <mxGeometry width="220.00000000000003" height="75" as="geometry" />
        </mxCell>
        <mxCell id="6P4yh0mAgrU536swKlk3-17" value="" style="group" parent="6P4yh0mAgrU536swKlk3-18" vertex="1" connectable="0">
          <mxGeometry x="12.571428571428573" width="190.14285714285717" height="75" as="geometry" />
        </mxCell>
        <mxCell id="xBWhjtgX0dWzdN7Rrsa9-15" value="42" style="rounded=0;whiteSpace=wrap;html=1;" parent="6P4yh0mAgrU536swKlk3-17" vertex="1">
          <mxGeometry x="80.14285714285715" width="110.00000000000001" height="25" as="geometry" />
        </mxCell>
        <mxCell id="xBWhjtgX0dWzdN7Rrsa9-16" value="&quot;fourtytwo&quot;" style="rounded=0;whiteSpace=wrap;html=1;" parent="6P4yh0mAgrU536swKlk3-17" vertex="1">
          <mxGeometry x="80.14285714285715" y="25" width="110.00000000000001" height="25" as="geometry" />
        </mxCell>
        <mxCell id="xBWhjtgX0dWzdN7Rrsa9-17" value="123.1" style="rounded=0;whiteSpace=wrap;html=1;" parent="6P4yh0mAgrU536swKlk3-17" vertex="1">
          <mxGeometry x="80.14285714285715" y="50" width="110.00000000000001" height="25" as="geometry" />
        </mxCell>
        <mxCell id="xBWhjtgX0dWzdN7Rrsa9-22" value="a" style="text;html=1;align=center;verticalAlign=middle;whiteSpace=wrap;rounded=0;" parent="6P4yh0mAgrU536swKlk3-17" vertex="1">
          <mxGeometry y="5" width="23.571428571428577" height="15" as="geometry" />
        </mxCell>
        <mxCell id="xBWhjtgX0dWzdN7Rrsa9-24" value="b" style="text;html=1;align=center;verticalAlign=middle;whiteSpace=wrap;rounded=0;" parent="6P4yh0mAgrU536swKlk3-17" vertex="1">
          <mxGeometry y="30" width="23.571428571428577" height="15" as="geometry" />
        </mxCell>
        <mxCell id="xBWhjtgX0dWzdN7Rrsa9-26" value="c" style="text;html=1;align=center;verticalAlign=middle;whiteSpace=wrap;rounded=0;" parent="6P4yh0mAgrU536swKlk3-17" vertex="1">
          <mxGeometry y="55" width="23.571428571428577" height="15" as="geometry" />
        </mxCell>
        <mxCell id="xBWhjtgX0dWzdN7Rrsa9-30" style="edgeStyle=orthogonalEdgeStyle;rounded=0;orthogonalLoop=1;jettySize=auto;html=1;exitX=1;exitY=0.5;exitDx=0;exitDy=0;entryX=0;entryY=0.5;entryDx=0;entryDy=0;" parent="6P4yh0mAgrU536swKlk3-17" source="xBWhjtgX0dWzdN7Rrsa9-22" target="xBWhjtgX0dWzdN7Rrsa9-15" edge="1">
          <mxGeometry relative="1" as="geometry" />
        </mxCell>
        <mxCell id="xBWhjtgX0dWzdN7Rrsa9-29" style="edgeStyle=orthogonalEdgeStyle;rounded=0;orthogonalLoop=1;jettySize=auto;html=1;exitX=1;exitY=0.5;exitDx=0;exitDy=0;entryX=0;entryY=0.5;entryDx=0;entryDy=0;" parent="6P4yh0mAgrU536swKlk3-17" source="xBWhjtgX0dWzdN7Rrsa9-24" target="xBWhjtgX0dWzdN7Rrsa9-16" edge="1">
          <mxGeometry relative="1" as="geometry" />
        </mxCell>
        <mxCell id="xBWhjtgX0dWzdN7Rrsa9-28" style="edgeStyle=orthogonalEdgeStyle;rounded=0;orthogonalLoop=1;jettySize=auto;html=1;exitX=1;exitY=0.5;exitDx=0;exitDy=0;entryX=0;entryY=0.5;entryDx=0;entryDy=0;" parent="6P4yh0mAgrU536swKlk3-17" source="xBWhjtgX0dWzdN7Rrsa9-26" target="xBWhjtgX0dWzdN7Rrsa9-17" edge="1">
          <mxGeometry relative="1" as="geometry" />
        </mxCell>
        <mxCell id="xBWhjtgX0dWzdN7Rrsa9-38" value="&lt;b&gt;Expressions&lt;/b&gt;" style="rounded=0;whiteSpace=wrap;html=1;fillColor=#dae8fc;strokeColor=#6c8ebf;" parent="1" vertex="1">
          <mxGeometry x="20" y="563.56" width="220" height="20" as="geometry" />
        </mxCell>
        <mxCell id="6P4yh0mAgrU536swKlk3-24" style="edgeStyle=none;curved=1;rounded=0;orthogonalLoop=1;jettySize=auto;html=1;entryX=1;entryY=0.5;entryDx=0;entryDy=0;fontSize=12;startSize=8;endSize=8;" parent="1" source="xBWhjtgX0dWzdN7Rrsa9-48" target="xBWhjtgX0dWzdN7Rrsa9-48" edge="1">
          <mxGeometry relative="1" as="geometry" />
        </mxCell>
        <mxCell id="rt1N88s9a_B3tyHPrRoH-1" value="&lt;b&gt;Functions&lt;/b&gt;" style="rounded=0;whiteSpace=wrap;html=1;fillColor=#dae8fc;strokeColor=#6c8ebf;" parent="1" vertex="1">
          <mxGeometry x="240" y="605" width="340" height="20" as="geometry" />
        </mxCell>
        <mxCell id="rt1N88s9a_B3tyHPrRoH-2" value="&lt;blockquote style=&quot;margin: 10px 0px 0px 5px; border: medium; padding: 0px;&quot;&gt;&lt;div style=&quot;padding-bottom: 0px; margin-top: 0px; padding-left: 0px; padding-right: 0px; line-height: 130%;&quot;&gt;&lt;p&gt;&lt;/p&gt;&lt;ul style=&quot;padding-left: 10px;&quot;&gt;&lt;li&gt;Accept 0 or more &lt;b&gt;arguments&lt;/b&gt;&lt;/li&gt;&lt;li&gt;&lt;b&gt;Return&lt;/b&gt;&amp;nbsp;0 or more return values&lt;/li&gt;&lt;li&gt;Return immediately returns from function&lt;/li&gt;&lt;li&gt;Arguments passed by &lt;b&gt;position&lt;/b&gt; or &lt;b&gt;keyword&lt;/b&gt;&lt;/li&gt;&lt;li&gt;Arguments can have &lt;b&gt;default values&lt;/b&gt;&lt;/li&gt;&lt;li&gt;&lt;b&gt;Variable positional&lt;/b&gt;&amp;nbsp;arguments defined with * “packed” into a tuple&lt;/li&gt;&lt;li&gt;&lt;b&gt;Variable keyword&lt;/b&gt; arguments defined with ** “packed” into a dictionary&lt;/li&gt;&lt;li&gt;If no return, return value is &lt;b&gt;None&lt;/b&gt;&lt;/li&gt;&lt;/ul&gt;&lt;/div&gt;&lt;/blockquote&gt;" style="rounded=0;whiteSpace=wrap;html=1;align=left;" parent="1" vertex="1">
          <mxGeometry x="240" y="740" width="340" height="155" as="geometry" />
        </mxCell>
        <mxCell id="rt1N88s9a_B3tyHPrRoH-3" value="&lt;pre style=&quot;margin-top: 0px; margin-bottom: 0px;&quot;&gt;&lt;font&gt;def foo(a, b=1, *args, **kwargs):&lt;/font&gt;&lt;/pre&gt;&lt;pre style=&quot;margin-top: 0px; margin-bottom: 0px;&quot;&gt;&lt;font&gt;    print(args, &lt;span style=&quot;font-family: Helvetica; white-space: normal;&quot;&gt;kwargs,&amp;nbsp;&lt;/span&gt;&lt;span style=&quot;font-family: Helvetica; white-space: normal;&quot;&gt;a + b)&lt;/span&gt;&lt;/font&gt;&lt;/pre&gt;&lt;pre style=&quot;margin-top: 0px; margin-bottom: 0px;&quot;&gt;&lt;font&gt;foo(1)                  # (), {}, 2&lt;/font&gt;&lt;/pre&gt;&lt;pre style=&quot;margin-top: 0px; margin-bottom: 0px;&quot;&gt;&lt;font&gt;foo(a=1)                # (), {}, 2&lt;/font&gt;&lt;/pre&gt;&lt;pre style=&quot;margin-top: 0px; margin-bottom: 0px;&quot;&gt;&lt;font&gt;foo(b=1, a=2)           # (), {}, 3&lt;/font&gt;&lt;/pre&gt;&lt;pre style=&quot;margin-top: 0px; margin-bottom: 0px;&quot;&gt;&lt;font&gt;foor(1, 2, 3, 4)        # (3, 4), {}, 3&lt;/font&gt;&lt;/pre&gt;&lt;pre style=&quot;margin-top: 0px; margin-bottom: 0px;&quot;&gt;&lt;font&gt;foo(a=1, b=2, c=3, d=4) # (), {“c”:3,”d”:4}, 3 &lt;/font&gt;&lt;/pre&gt;" style="rounded=0;whiteSpace=wrap;html=1;align=left;fillColor=#E6E6E6;" parent="1" vertex="1">
          <mxGeometry x="240" y="625" width="340" height="115" as="geometry" />
        </mxCell>
        <mxCell id="rt1N88s9a_B3tyHPrRoH-4" value="&lt;b&gt;None&lt;/b&gt;" style="rounded=0;whiteSpace=wrap;html=1;fillColor=#dae8fc;strokeColor=#6c8ebf;" parent="1" vertex="1">
          <mxGeometry x="20" y="970" width="220" height="20" as="geometry" />
        </mxCell>
        <mxCell id="rt1N88s9a_B3tyHPrRoH-5" value="&lt;blockquote style=&quot;margin: 10px 0px 0px 5px; border: medium; padding: 0px;&quot;&gt;&lt;div style=&quot;padding-bottom: 0px; margin-top: 0px; padding-left: 0px; padding-right: 0px; line-height: 130%;&quot;&gt;&lt;p&gt;&lt;/p&gt;&lt;p&gt;&lt;/p&gt;&lt;p&gt;&lt;/p&gt;&lt;p&gt;&lt;/p&gt;&lt;font&gt;&lt;b&gt;None&lt;/b&gt; is a special type that means “nothing”&lt;/font&gt;&lt;br&gt;&lt;p&gt;&lt;/p&gt;&lt;p&gt;&lt;/p&gt;&lt;p&gt;&lt;/p&gt;&lt;/div&gt;&lt;/blockquote&gt;" style="rounded=0;whiteSpace=wrap;html=1;align=left;" parent="1" vertex="1">
          <mxGeometry x="20" y="990" width="220" height="35" as="geometry" />
        </mxCell>
        <mxCell id="xBWhjtgX0dWzdN7Rrsa9-10" value="&lt;b style=&quot;line-height: 100%;&quot;&gt;Assignment&lt;/b&gt;" style="rounded=0;whiteSpace=wrap;html=1;fillColor=#dae8fc;strokeColor=#6c8ebf;" parent="1" vertex="1">
          <mxGeometry x="20" y="296" width="220" height="20" as="geometry" />
        </mxCell>
        <mxCell id="7fbMrGCq_BO8KAxiDUGN-2" value="&lt;b style=&quot;line-height: 100%;&quot;&gt;Looping&lt;/b&gt;" style="rounded=0;whiteSpace=wrap;html=1;fillColor=#dae8fc;strokeColor=#6c8ebf;" parent="1" vertex="1">
          <mxGeometry x="240" y="436" width="340" height="19" as="geometry" />
        </mxCell>
        <mxCell id="xBWhjtgX0dWzdN7Rrsa9-50" value="&lt;pre style=&quot;margin-top: 0px; margin-bottom: 0px;&quot;&gt;&lt;font face=&quot;monospace&quot; style=&quot;font-size: 11px;&quot;&gt;if EXPRESSION:  &lt;br&gt;&lt;/font&gt;&lt;pre style=&quot;margin-top: 0px; margin-bottom: 0px;&quot;&gt;&lt;font face=&quot;monospace&quot; style=&quot;font-size: 11px;&quot;&gt;    indented block executed if EXPRESSION is True&lt;br&gt;elif EXPRESSION_2:&lt;br&gt;    indented block executed if EXPRESSION is False&lt;/font&gt;&lt;/pre&gt;&lt;pre style=&quot;margin-top: 0px; margin-bottom: 0px;&quot;&gt;&lt;font face=&quot;monospace&quot; style=&quot;font-size: 11px;&quot;&gt;    and EXPRESSION_2 is True&lt;br&gt;elif EXPRESSION_3:&lt;br&gt;    indented block executed if EXPRESSION is False,&lt;/font&gt;&lt;/pre&gt;&lt;pre style=&quot;margin-top: 0px; margin-bottom: 0px;&quot;&gt;&lt;font face=&quot;monospace&quot; style=&quot;font-size: 11px;&quot;&gt;    EXPRESSION_2 is False, and EXPRESSION_3 is True&lt;br&gt;else:&lt;br&gt;    indented block executed if all EXPRESSIONs&lt;/font&gt;&lt;/pre&gt;&lt;pre style=&quot;margin-top: 0px; margin-bottom: 0px;&quot;&gt;&lt;font face=&quot;monospace&quot; style=&quot;font-size: 11px;&quot;&gt;&lt;font&gt;    are False, &lt;/font&gt;&lt;span style=&quot;white-space: normal;&quot;&gt;i.e. the &quot;Default&quot; case&lt;/span&gt;&lt;/font&gt;&lt;/pre&gt;&lt;pre style=&quot;margin-top: 0px; margin-bottom: 0px;&quot;&gt;&lt;font face=&quot;monospace&quot; style=&quot;font-size: 11px;&quot;&gt;Program continues here&lt;/font&gt;&lt;/pre&gt;&lt;/pre&gt;" style="rounded=0;whiteSpace=wrap;html=1;align=left;fillColor=#E6E6E6;" parent="1" vertex="1">
          <mxGeometry x="240" y="255" width="340" height="181" as="geometry" />
        </mxCell>
        <mxCell id="7fbMrGCq_BO8KAxiDUGN-3" value="&lt;b&gt;Lists&lt;/b&gt;" style="rounded=0;whiteSpace=wrap;html=1;fillColor=#dae8fc;strokeColor=#6c8ebf;" parent="1" vertex="1">
          <mxGeometry x="580" y="60" width="250" height="20" as="geometry" />
        </mxCell>
        <mxCell id="7fbMrGCq_BO8KAxiDUGN-4" value="&lt;div style=&quot;margin-top: 0px; margin-bottom: 0px; line-height: 100%;&quot;&gt;&lt;pre style=&quot;margin-top: 0px; margin-bottom: 0px;&quot;&gt;&lt;span style=&quot;font-size: 11px;&quot;&gt;x = [1, 2, 3]&lt;/span&gt;&lt;/pre&gt;&lt;pre style=&quot;margin-top: 0px; margin-bottom: 0px;&quot;&gt;&lt;span style=&quot;font-size: 11px;&quot;&gt;x.append(4)            # [1, 2, 3, 4]&lt;/span&gt;&lt;/pre&gt;&lt;pre style=&quot;margin-top: 0px; margin-bottom: 0px;&quot;&gt;&lt;span style=&quot;font-size: 11px;&quot;&gt;for elem in x:&lt;/span&gt;&lt;/pre&gt;&lt;pre style=&quot;margin-top: 0px; margin-bottom: 0px;&quot;&gt;&lt;span style=&quot;font-size: 11px;&quot;&gt;    print(elem)&lt;/span&gt;&lt;/pre&gt;&lt;pre style=&quot;margin-top: 0px; margin-bottom: 0px;&quot;&gt;&lt;span style=&quot;font-size: 11px;&quot;&gt;for i in range(len(x)):&lt;/span&gt;&lt;/pre&gt;&lt;pre style=&quot;margin-top: 0px; margin-bottom: 0px;&quot;&gt;&lt;span style=&quot;font-size: 11px;&quot;&gt;    x[i] = x[i] + 1&lt;/span&gt;&lt;/pre&gt;&lt;pre style=&quot;margin-top: 0px; margin-bottom: 0px;&quot;&gt;&lt;span style=&quot;font-size: 11px;&quot;&gt;print(x)               # [2, 3, 4, 5]&lt;/span&gt;&lt;/pre&gt;&lt;/div&gt;" style="rounded=0;whiteSpace=wrap;html=1;align=left;fillColor=#E6E6E6;fontFamily=monospace;" parent="1" vertex="1">
          <mxGeometry x="580" y="80" width="250" height="100" as="geometry" />
        </mxCell>
        <mxCell id="xnPjPrGg45b34fDxrZJE-1" value="&lt;b&gt;Dicts&lt;/b&gt;" style="rounded=0;whiteSpace=wrap;html=1;fillColor=#dae8fc;strokeColor=#6c8ebf;" vertex="1" parent="1">
          <mxGeometry x="580" y="314.22" width="250" height="20" as="geometry" />
        </mxCell>
        <mxCell id="xnPjPrGg45b34fDxrZJE-2" value="&lt;div style=&quot;margin-top: 0px; margin-bottom: 0px; line-height: 100%;&quot;&gt;&lt;pre style=&quot;margin-top: 0px; margin-bottom: 0px;&quot;&gt;&lt;span style=&quot;font-size: 11px;&quot;&gt;x = {&quot;a&quot;: 1, &quot;b&quot;: 2, &quot;c&quot;: 3}&lt;/span&gt;&lt;/pre&gt;&lt;pre style=&quot;margin-top: 0px; margin-bottom: 0px;&quot;&gt;&lt;span style=&quot;font-size: 11px;&quot;&gt;x[&quot;d&quot;] = 4 &lt;/span&gt;&lt;/pre&gt;&lt;pre style=&quot;margin-top: 0px; margin-bottom: 0px;&quot;&gt;&lt;span style=&quot;font-size: 11px;&quot;&gt;for key in x:&lt;/span&gt;&lt;/pre&gt;&lt;pre style=&quot;margin-top: 0px; margin-bottom: 0px;&quot;&gt;&lt;span style=&quot;font-size: 11px;&quot;&gt;    print(x[key])&lt;/span&gt;&lt;/pre&gt;&lt;pre style=&quot;margin-top: 0px; margin-bottom: 0px;&quot;&gt;&lt;span style=&quot;font-size: 11px; white-space: normal;&quot;&gt;for k, v in x.items():&lt;/span&gt;&lt;br&gt;&lt;/pre&gt;&lt;pre style=&quot;margin-top: 0px; margin-bottom: 0px;&quot;&gt;&lt;span style=&quot;font-size: 11px;&quot;&gt;    x[k] = v + 1&lt;/span&gt;&lt;/pre&gt;&lt;pre style=&quot;margin-top: 0px; margin-bottom: 0px;&quot;&gt;&lt;span style=&quot;font-size: 11px; white-space: normal;&quot;&gt;print(x)&lt;/span&gt;&lt;/pre&gt;&lt;pre style=&quot;margin-top: 0px; margin-bottom: 0px;&quot;&gt;&lt;span style=&quot;font-size: 11px; white-space: normal;&quot;&gt;# {&quot;a&quot;:2, &quot;b&quot;:3, &quot;c&quot;:4, &quot;d&quot;:5}&lt;/span&gt;&lt;br&gt;&lt;/pre&gt;&lt;/div&gt;" style="rounded=0;whiteSpace=wrap;html=1;align=left;fillColor=#E6E6E6;fontFamily=monospace;" vertex="1" parent="1">
          <mxGeometry x="580" y="334.22" width="250" height="120" as="geometry" />
        </mxCell>
        <mxCell id="xnPjPrGg45b34fDxrZJE-4" value="&lt;blockquote style=&quot;margin: 0px 0px 0px 2px; border: medium; padding: 0px;&quot;&gt;&lt;font face=&quot;monospace&quot;&gt;items()&lt;/font&gt;: iterate through key, value&lt;/blockquote&gt;&lt;blockquote style=&quot;margin: 0px 0px 0px 2px; border: medium; padding: 0px;&quot;&gt;&lt;font face=&quot;monospace&quot;&gt;keys()&lt;/font&gt;: get keys&lt;/blockquote&gt;&lt;blockquote style=&quot;margin: 0px 0px 0px 2px; border: medium; padding: 0px;&quot;&gt;&lt;font face=&quot;monospace&quot;&gt;values()&lt;/font&gt;: get values&lt;/blockquote&gt;&lt;blockquote style=&quot;margin: 0px 0px 0px 2px; border: medium; padding: 0px;&quot;&gt;&lt;font face=&quot;monospace&quot;&gt;get(key, default)&lt;/font&gt;: get value by key, return default if missing&lt;/blockquote&gt;&lt;blockquote style=&quot;margin: 0px 0px 0px 2px; border: medium; padding: 0px;&quot;&gt;&lt;font face=&quot;monospace&quot;&gt;pop(key)&lt;/font&gt;: pop value by key&lt;/blockquote&gt;&lt;blockquote style=&quot;margin: 0px 0px 0px 2px; border: medium; padding: 0px;&quot;&gt;&lt;font face=&quot;monospace&quot;&gt;update(dct)&lt;/font&gt;: update with another dict&lt;/blockquote&gt;&lt;blockquote style=&quot;margin: 0px 0px 0px 2px; border: medium; padding: 0px;&quot;&gt;&lt;font face=&quot;monospace&quot;&gt;copy()&lt;/font&gt;: create copy of the dict&lt;/blockquote&gt;" style="rounded=0;whiteSpace=wrap;html=1;align=left;" vertex="1" parent="1">
          <mxGeometry x="580" y="454.22" width="250" height="120.78" as="geometry" />
        </mxCell>
        <mxCell id="xnPjPrGg45b34fDxrZJE-5" value="&lt;b&gt;Sets&lt;/b&gt;" style="rounded=0;whiteSpace=wrap;html=1;fillColor=#dae8fc;strokeColor=#6c8ebf;" vertex="1" parent="1">
          <mxGeometry x="580" y="575.0000000000001" width="250" height="20" as="geometry" />
        </mxCell>
        <mxCell id="xnPjPrGg45b34fDxrZJE-6" value="&lt;div style=&quot;margin-top: 0px; margin-bottom: 0px; line-height: 100%;&quot;&gt;&lt;pre style=&quot;margin-top: 0px; margin-bottom: 0px;&quot;&gt;&lt;span style=&quot;font-size: 11px;&quot;&gt;x = {&quot;a&quot;, &quot;b&quot;, &quot;c&quot;}&lt;/span&gt;&lt;/pre&gt;&lt;pre style=&quot;margin-top: 0px; margin-bottom: 0px;&quot;&gt;&lt;span style=&quot;font-size: 11px;&quot;&gt;x.add(&quot;a&quot;)  # {&quot;a&quot;, &quot;b&quot;, &quot;c&quot;}&lt;/span&gt;&lt;/pre&gt;&lt;pre style=&quot;margin-top: 0px; margin-bottom: 0px;&quot;&gt;&lt;span style=&quot;font-size: 11px;&quot;&gt;print(x.intersection({&quot;a&quot;, &quot;b&quot;}))&lt;/span&gt;&lt;/pre&gt;&lt;pre style=&quot;margin-top: 0px; margin-bottom: 0px;&quot;&gt;&lt;span style=&quot;font-size: 11px;&quot;&gt;# {&quot;a&quot;, &quot;b&quot;}&lt;/span&gt;&lt;/pre&gt;&lt;pre style=&quot;margin-top: 0px; margin-bottom: 0px;&quot;&gt;&lt;span style=&quot;font-size: 11px;&quot;&gt;print(x.union({&quot;d&quot;})&lt;/span&gt;&lt;/pre&gt;&lt;pre style=&quot;margin-top: 0px; margin-bottom: 0px;&quot;&gt;&lt;span style=&quot;font-size: 11px;&quot;&gt;# {&quot;a&quot;, &quot;b&quot;, &quot;c&quot;, &quot;d&quot;}&lt;/span&gt;&lt;/pre&gt;&lt;pre style=&quot;margin-top: 0px; margin-bottom: 0px;&quot;&gt;&lt;span style=&quot;font-size: 11px;&quot;&gt;print(x - {&quot;a&quot;, &quot;b&quot;})&lt;/span&gt;&lt;/pre&gt;&lt;pre style=&quot;margin-top: 0px; margin-bottom: 0px;&quot;&gt;&lt;span style=&quot;font-size: 11px;&quot;&gt;# {&quot;c&quot;}&lt;/span&gt;&lt;/pre&gt;&lt;/div&gt;" style="rounded=0;whiteSpace=wrap;html=1;align=left;fillColor=#E6E6E6;fontFamily=monospace;" vertex="1" parent="1">
          <mxGeometry x="580" y="595" width="250" height="116.45" as="geometry" />
        </mxCell>
        <mxCell id="xnPjPrGg45b34fDxrZJE-7" value="&lt;blockquote style=&quot;margin: 0px 0px 0px 2px; border: medium; padding: 0px;&quot;&gt;&lt;font face=&quot;monospace&quot;&gt;add(item)&lt;/font&gt;&lt;font face=&quot;Helvetica&quot;&gt;: add item to set&lt;/font&gt;&lt;/blockquote&gt;&lt;blockquote style=&quot;margin: 0px 0px 0px 2px; border: medium; padding: 0px;&quot;&gt;&lt;font face=&quot;monospace&quot;&gt;remove(item)&lt;/font&gt;&lt;font face=&quot;Helvetica&quot;&gt;: remove item from set&lt;/font&gt;&lt;/blockquote&gt;&lt;blockquote style=&quot;margin: 0px 0px 0px 2px; border: medium; padding: 0px;&quot;&gt;&lt;font face=&quot;monospace&quot;&gt;union(s)&lt;/font&gt;&lt;font face=&quot;Helvetica&quot;&gt;: union with set s&lt;/font&gt;&lt;/blockquote&gt;&lt;blockquote style=&quot;margin: 0px 0px 0px 2px; border: medium; padding: 0px;&quot;&gt;&lt;font face=&quot;monospace&quot;&gt;intersection(s)&lt;/font&gt;&lt;font face=&quot;Helvetica&quot;&gt;: intersect with set s&lt;/font&gt;&lt;/blockquote&gt;&lt;blockquote style=&quot;margin: 0px 0px 0px 2px; border: medium; padding: 0px;&quot;&gt;&lt;font face=&quot;monospace&quot;&gt;difference(s)&lt;/font&gt;&lt;font face=&quot;Helvetica&quot;&gt;: difference with s&lt;/font&gt;&lt;/blockquote&gt;&lt;blockquote style=&quot;margin: 0px 0px 0px 2px; border: medium; padding: 0px;&quot;&gt;&lt;font face=&quot;monospace&quot;&gt;copy()&lt;/font&gt;&lt;font face=&quot;Helvetica&quot;&gt;: make a copy of the set&lt;/font&gt;&lt;/blockquote&gt;" style="rounded=0;whiteSpace=wrap;html=1;align=left;" vertex="1" parent="1">
          <mxGeometry x="580" y="710" width="250" height="90" as="geometry" />
        </mxCell>
        <mxCell id="xnPjPrGg45b34fDxrZJE-8" value="&lt;b&gt;Imports&lt;/b&gt;" style="rounded=0;whiteSpace=wrap;html=1;fillColor=#dae8fc;strokeColor=#6c8ebf;" vertex="1" parent="1">
          <mxGeometry x="580" y="800.0000000000001" width="250" height="20" as="geometry" />
        </mxCell>
        <mxCell id="xnPjPrGg45b34fDxrZJE-9" value="&lt;div style=&quot;margin-top: 0px; margin-bottom: 0px; line-height: 100%;&quot;&gt;&lt;p&gt;&lt;font face=&quot;monospace&quot;&gt;&lt;span style=&quot;font-size: 11px;&quot;&gt;import math&lt;br&gt;&lt;/span&gt;&lt;span style=&quot;font-size: 11px;&quot;&gt;print(math.sin(math.pi / 2 ))&lt;br&gt;&lt;/span&gt;&lt;span style=&quot;font-size: 11px;&quot;&gt;import math as MATH&lt;br&gt;&lt;/span&gt;&lt;span style=&quot;font-size: 11px; white-space: normal;&quot;&gt;print(&lt;/span&gt;&lt;span style=&quot;font-size: 11px; white-space: normal;&quot;&gt;MATH&lt;/span&gt;&lt;span style=&quot;font-size: 11px; white-space: normal;&quot;&gt;.sin(&lt;/span&gt;&lt;span style=&quot;font-size: 11px; white-space: normal;&quot;&gt;MATH&lt;/span&gt;&lt;span style=&quot;font-size: 11px; white-space: normal;&quot;&gt;.pi / 2 ))&lt;br&gt;&lt;/span&gt;&lt;span style=&quot;font-size: 11px; white-space: normal;&quot;&gt;from math import sin, pi&lt;br&gt;&lt;/span&gt;&lt;span style=&quot;font-size: 11px; white-space: normal;&quot;&gt;print(sin(pi / 2))&lt;br&gt;&lt;/span&gt;&lt;span style=&quot;font-size: 11px; white-space: normal;&quot;&gt;from math import sin, pi as PI&lt;/span&gt;&lt;span style=&quot;font-size: 11px; white-space: normal;&quot;&gt;&lt;br&gt;&lt;/span&gt;&lt;span style=&quot;font-size: 11px; white-space: normal;&quot;&gt;print(sin(PI / 2))&lt;/span&gt;&lt;/font&gt;&lt;/p&gt;&lt;/div&gt;" style="rounded=0;whiteSpace=wrap;html=1;align=left;fillColor=#E6E6E6;fontFamily=monospace;" vertex="1" parent="1">
          <mxGeometry x="580" y="820" width="250" height="110" as="geometry" />
        </mxCell>
        <mxCell id="xnPjPrGg45b34fDxrZJE-10" value="&lt;b&gt;Files&lt;/b&gt;" style="rounded=0;whiteSpace=wrap;html=1;fillColor=#dae8fc;strokeColor=#6c8ebf;" vertex="1" parent="1">
          <mxGeometry x="580" y="930.0000000000001" width="250" height="20" as="geometry" />
        </mxCell>
        <mxCell id="xnPjPrGg45b34fDxrZJE-11" value="&lt;div style=&quot;margin-top: 0px; margin-bottom: 0px; line-height: 100%;&quot;&gt;&lt;p style=&quot;margin-top: 0px; margin-bottom: 0px;&quot;&gt;&lt;font face=&quot;monospace&quot;&gt;&lt;span style=&quot;font-size: 11px; line-height: 100%;&quot;&gt;fp_in = open(&quot;in.txt&quot;, &quot;r&quot;)&lt;/span&gt;&lt;/font&gt;&lt;/p&gt;&lt;p style=&quot;margin-top: 0px; margin-bottom: 0px;&quot;&gt;&lt;font face=&quot;monospace&quot;&gt;&lt;span style=&quot;font-size: 11px; line-height: 100%;&quot;&gt;fp_out = open(&quot;out.txt&quot;, &quot;w&quot;)&lt;/span&gt;&lt;/font&gt;&lt;/p&gt;&lt;p style=&quot;margin-top: 0px; margin-bottom: 0px;&quot;&gt;&lt;font face=&quot;monospace&quot;&gt;&lt;span style=&quot;font-size: 11px; line-height: 100%;&quot;&gt;for line in fp_in:&lt;/span&gt;&lt;/font&gt;&lt;/p&gt;&lt;p style=&quot;padding-bottom: 0px; margin-top: 0px; margin-bottom: 0px;&quot;&gt;&lt;font face=&quot;monospace&quot;&gt;&lt;span style=&quot;font-size: 11px; line-height: 100%;&quot;&gt;&amp;nbsp; &amp;nbsp; fp_out.write(line)&lt;/span&gt;&lt;/font&gt;&lt;/p&gt;&lt;p style=&quot;margin-top: 0px; margin-bottom: 0px;&quot;&gt;&lt;font face=&quot;monospace&quot;&gt;&lt;span style=&quot;font-size: 11px; line-height: 100%;&quot;&gt;fp_in.close()&lt;/span&gt;&lt;/font&gt;&lt;/p&gt;&lt;p style=&quot;margin-bottom: 0px; margin-top: 0px;&quot;&gt;&lt;font face=&quot;monospace&quot;&gt;&lt;span style=&quot;font-size: 11px; line-height: 100%;&quot;&gt;fp_out.close()&lt;/span&gt;&lt;/font&gt;&lt;/p&gt;&lt;/div&gt;" style="rounded=0;whiteSpace=wrap;html=1;align=left;fillColor=#E6E6E6;fontFamily=monospace;" vertex="1" parent="1">
          <mxGeometry x="580" y="950" width="250" height="75" as="geometry" />
        </mxCell>
      </root>
    </mxGraphModel>
  </diagram>
</mxfile>
